<svg width="48" height="48" viewBox="0 0 48 48" fill="none" xmlns="http://www.w3.org/2000/svg">
<path d="M46.3284 2.64433C35.821 -2.14255 26.7463 0.968752 23.8806 2.16551C11.7015 -2.86081 1.67164 2.40492 1.19403 2.64433C0.477749 3.12282 0 3.84105 0 4.79835V45.4869C0 46.4442 0.477749 47.1625 1.19403 47.6409C1.91031 48.1197 2.86585 48.1197 3.5821 47.6409C3.5821 47.6409 12.4179 42.854 22.9254 47.6409C23.6417 47.8803 24.3583 47.8803 25.0746 47.6409C25.0746 47.6409 33.9104 42.854 44.4179 47.6409C45.1342 47.8803 46.0897 47.8803 46.806 47.4015C47.5223 46.9226 48 46.2048 48 45.4869V4.79836C47.7611 3.84107 47.2834 2.88378 46.3282 2.64435L46.3284 2.64433ZM4.77613 41.8968V6.2345C7.40308 5.27721 13.8508 3.36219 21.4926 6.2345V41.8968C16.0002 40.2212 10.0299 40.2212 4.77613 41.8968ZM42.9851 41.8968C37.4928 40.2212 31.5224 40.2212 26.2687 41.8968V6.2345C28.8957 5.27721 35.3433 3.36219 42.9851 6.2345V41.8968Z" fill="#096EE1"/>
</svg>
